<?xml version="1.0" encoding="utf-8" ?>
<svg xmlns="http://www.w3.org/2000/svg" xmlns:xlink="http://www.w3.org/1999/xlink" width="1024" height="1024">
	<path d="M0 0L1024 0L1024 1024L0 1024L0 0Z"/>
	<path fill="#FEFEFE" d="M252.875 208.25L655.186 208.544L815.138 208.522Q863.2 208.347 911.261 208.667L911.517 816.996L771.75 816.985L112.706 816.426Q111.688 692.358 112.63 568.29L112.844 208.358C129.098 208.05 145.423 208.406 161.683 208.422L252.875 208.25Z"/>
	<path d="M319.862 703.051L415.548 703.013L415.755 767.998L319.699 767.997Q319.977 735.524 319.862 703.051Z"/>
	<path d="M464.139 256.017L560.169 255.987L560.222 299.801C560.229 306.565 560.942 314.356 559.935 321.011Q512.021 320.911 464.108 321.295L464.139 256.017Z"/>
	<path d="M752.272 703.006L848.499 702.997L848.403 768.008L752.212 767.977C751.493 746.464 751.807 724.536 752.272 703.006Z"/>
	<path d="M751.734 256.022L848.188 255.973Q848.423 288.497 848.172 321.02L751.899 321.019L751.734 256.022Z"/>
	<path d="M606.559 703.025L703.727 702.944L703.436 767.904L606.498 767.995L606.559 703.025Z"/>
	<path d="M607.803 256.022L704.883 255.997C705.14 277.661 704.938 299.355 704.956 321.023L607.712 321.099Q607.969 288.561 607.803 256.022Z"/>
	<path d="M175.033 703.04L272.36 703.026L272.375 767.999L175.027 767.97L175.033 703.04Z"/>
	<path d="M318.608 256.003L415.995 255.942L416.006 299.696C416.01 306.62 416.741 314.458 415.772 321.27C403.943 320.83 392.034 321.074 380.196 321.069Q349.497 321.023 318.8 321.344L318.608 256.003Z"/>
	<path d="M269.771 255.744C271.009 255.7 272.177 255.505 273.278 256.181C274.197 262.875 273.51 270.265 273.479 277.067L273.142 321.033L179.539 321.037C178.097 321.119 176.76 321.119 175.32 320.981C174.156 314.968 175.038 307.312 175.045 301.142L175.088 256.009L269.771 255.744Z"/>
	<path d="M463.09 703.023L561.561 703.04L561.546 768.011L463.066 767.974L463.09 703.023Z"/>
	<path d="M200.585 352.749L848.317 352.665L848.287 673.178C840.428 672.875 832.502 673.076 824.635 673.082L175.07 673.029L175.091 352.894L200.585 352.749Z"/>
	<path fill="#FEFEFE" d="M416.02 377.661C426.168 382.735 436.013 389.769 445.725 395.729L513.274 437.516Q556.915 464.036 600.123 491.259C610.527 497.826 624.349 504.854 633.609 512.445C606.963 529.592 579.351 545.576 552.209 561.954L461.399 617.051C446.389 626.169 431.606 636.607 415.946 644.547L416.02 377.661Z"/>
</svg>
