<?xml version="1.0" encoding="utf-8" ?>
<svg xmlns="http://www.w3.org/2000/svg" xmlns:xlink="http://www.w3.org/1999/xlink" width="1024" height="1024">
	<path fill="#FCFCFC" d="M0 0L1024 0L1024 1024L0 1024L0 0Z"/>
	<path fill="#14283E" d="M209.07 256.526L209.148 160.392L209.095 132.433C209.073 126.281 208.791 119.984 209.476 113.865Q209.675 111.949 210.072 110.064Q210.469 108.179 211.059 106.346Q211.65 104.512 212.427 102.75Q213.205 100.987 214.161 99.315C219.315 90.2708 227.653 84.192 237.674 81.561C246.146 79.3368 270.023 80.7485 280.178 80.7455L380.072 80.813L603.734 80.6332L661.525 80.6333C672.01 80.5969 682.578 80.2253 693.053 80.4812C695.958 80.5521 697.848 81.2401 700.326 82.7102C712.067 95.3407 724.575 107.22 736.734 119.444L814.615 197.499Q837.424 220.818 860.653 243.72C866.108 249.135 872.125 256.795 878.568 260.919Q855.965 261.193 833.361 260.953C832.863 268.768 834.543 279.436 832.858 286.694Q816.179 286.933 799.499 286.848C774.467 286.28 749.291 286.811 724.246 286.888C708.769 286.935 697.191 284.945 685.783 273.445C680.914 268.538 676.464 261.549 674.856 254.775C672.913 246.589 673.454 237.841 673.456 229.49L673.482 203.276L673.568 111.765C630.213 110.82 586.685 111.588 543.312 111.562L289.979 111.504L290.052 257.128C288.42 257.141 286.71 257.043 285.088 257.181C275.92 257.201 266.135 257.946 257.048 256.984C251.975 256.073 245.663 256.627 240.451 256.567C230.086 256.446 219.406 255.885 209.07 256.526Z"/>
	<path fill="#F8B847" d="M256.977 111.488L289.979 111.504L290.052 257.128C288.42 257.141 286.71 257.043 285.088 257.181C275.92 257.201 266.135 257.946 257.048 256.984L256.977 111.488Z"/>
	<path fill="#2C4F62" d="M700.326 82.7102C712.067 95.3407 724.575 107.22 736.734 119.444L814.615 197.499Q837.424 220.818 860.653 243.72C866.108 249.135 872.125 256.795 878.568 260.919Q855.965 261.193 833.361 260.953C808.46 260.321 783.441 260.705 758.532 260.705C747.427 260.705 735.472 261.568 724.482 260.384C716.943 259.572 711.134 256.965 706.299 250.93C703.33 247.223 701.032 242.858 700.314 238.13C699.186 230.7 699.867 222.468 699.885 214.93L699.922 172.735L699.979 111.947C700.006 102.398 699.214 92.1742 700.326 82.7102Z"/>
	<path fill="#C6D9DD" d="M880.11 262.2C880.18 262.443 880.241 262.688 880.319 262.928C881.201 265.626 886.094 269.59 888.237 271.723C893.992 277.447 899.592 283.333 905.37 289.029C909.545 293.146 914.365 297.098 917.953 301.709C919.143 303.238 920.085 304.787 920.46 306.71C921.55 312.31 920.955 318.808 920.937 324.51L920.893 355.09L920.977 472.95L920.977 763.336C920.973 811.265 921.686 859.308 921.014 907.226C920.929 913.289 919.977 918.804 917.539 924.38C913.44 933.752 906.96 941.511 897.237 945.257C891.431 947.494 885.315 948.231 879.131 948.42C866.407 948.811 853.603 948.342 840.876 948.218L789.694 948.188L558.433 948.029L290.703 948.091L228.969 948.207C219.809 948.246 210.542 948.64 201.392 948.412C196.757 948.296 191.314 947.516 187.091 945.62C176.982 941.081 168.375 933.318 164.361 922.804C162.885 918.938 162.366 915.167 162.235 911.052C187.234 911.316 212.252 911.001 237.254 910.995L385.387 911.006L835.398 910.944C848.368 910.944 858.886 909.043 868.319 899.45Q868.912 898.843 869.479 898.212Q870.047 897.581 870.588 896.927Q871.128 896.273 871.642 895.597Q872.155 894.922 872.64 894.225Q873.125 893.529 873.581 892.813Q874.037 892.097 874.463 891.363Q874.889 890.629 875.284 889.878Q875.679 889.127 876.043 888.361Q876.407 887.594 876.739 886.813Q877.071 886.032 877.37 885.238Q877.67 884.444 877.936 883.638Q878.202 882.832 878.435 882.016Q878.668 881.2 878.867 880.375Q879.066 879.55 879.23 878.718Q879.395 877.885 879.525 877.047Q879.656 876.208 879.751 875.365C880.572 867.88 880.191 860.06 880.172 852.533L880.104 816.501L880.2 695L880.017 286.762Q879.898 274.48 880.11 262.2Z"/>
	<path fill="#DB5C4B" d="M289.979 111.504L543.312 111.562C586.685 111.588 630.213 110.82 673.568 111.765L673.482 203.276L673.456 229.49C673.454 237.841 672.913 246.589 674.856 254.775C676.464 261.549 680.914 268.538 685.783 273.445C697.191 284.945 708.769 286.935 724.246 286.888C749.291 286.811 774.467 286.28 799.499 286.848Q798.742 370.666 799.446 454.481C790.305 446.56 758.328 410.931 751.655 407.631C748.273 402.958 742.717 398.548 738.59 394.444Q722.62 378.383 706.456 362.516L605.104 261.093L601.167 257.448L401.78 257.469L328.698 257.543C314.222 257.558 299.533 258.027 285.088 257.181C286.71 257.043 288.42 257.141 290.052 257.128L289.979 111.504Z"/>
	<path fill="#14283E" d="M833.361 260.953Q855.965 261.193 878.568 260.919L880.11 262.2Q879.898 274.48 880.017 286.762L880.2 695L880.104 816.501L880.172 852.533C880.191 860.06 880.572 867.88 879.751 875.365Q879.656 876.208 879.525 877.047Q879.395 877.885 879.23 878.718Q879.066 879.55 878.867 880.375Q878.668 881.2 878.435 882.016Q878.202 882.833 877.936 883.638Q877.67 884.444 877.37 885.238Q877.071 886.032 876.739 886.813Q876.407 887.594 876.043 888.361Q875.679 889.127 875.284 889.878Q874.889 890.629 874.463 891.363Q874.037 892.097 873.581 892.813Q873.125 893.529 872.64 894.225Q872.155 894.922 871.642 895.597Q871.128 896.273 870.588 896.927Q870.047 897.581 869.479 898.212Q868.912 898.843 868.319 899.45C858.886 909.043 848.368 910.944 835.398 910.944L385.387 911.006L237.254 910.995C212.252 911.001 187.234 911.316 162.235 911.052C150.457 910.895 139.505 911.927 129.019 905.388C119.848 899.67 115.454 891.261 113.112 880.988C120.281 879.645 134.233 880.909 142.362 880.935C150.775 880.962 159.107 880.224 167.491 880.174C180.486 880.095 193.683 880.68 206.647 879.986L210.1 881.027C250.342 881.913 290.809 881.04 331.071 881.025L612.911 880.975L703.918 880.993C720.078 880.999 736.287 880.752 752.442 881.082L751.876 442.433C752.006 430.835 751.597 419.232 751.655 407.631C758.328 410.931 790.305 446.56 799.446 454.481Q798.742 370.662 799.499 286.848Q816.179 286.933 832.858 286.694C834.543 279.436 832.863 268.768 833.361 260.953Z"/>
	<path fill="#0D1A24" d="M833.361 260.953Q855.965 261.193 878.568 260.919L880.11 262.2Q879.898 274.48 880.017 286.762C870.1 287.09 860.162 286.855 850.241 286.803C845.017 286.775 838.488 286.105 833.455 287.316L832.858 286.694C834.543 279.436 832.863 268.768 833.361 260.953Z"/>
	<path fill="#F8B847" d="M799.499 286.848Q816.179 286.933 832.858 286.694L833.455 287.316L833.263 672.027L833.357 811.176C833.367 834.524 833.712 857.923 833.335 881.265C822.298 881.251 811.127 881.59 800.105 881.185L800.003 596.014L799.99 505.636C799.983 488.738 800.778 471.316 799.446 454.481Q798.742 370.662 799.499 286.848Z"/>
	<path fill="#D85020" d="M751.655 407.631C758.328 410.931 790.305 446.56 799.446 454.481C800.778 471.316 799.983 488.738 799.99 505.636L800.003 596.014L800.105 881.185L752.442 881.082L751.876 442.433C752.006 430.835 751.597 419.232 751.655 407.631Z"/>
	<defs>
		<linearGradient id="gradient_0" gradientUnits="userSpaceOnUse" x1="672.4541" y1="945.63904" x2="112.10772" y2="275.10947">
			<stop offset="0" stop-color="#17395D"/>
			<stop offset="1" stop-color="#236BA1"/>
		</linearGradient>
	</defs>
	<path fill="url(#gradient_0)" d="M209.07 256.526C219.406 255.885 230.086 256.446 240.451 256.567C245.663 256.627 251.975 256.073 257.048 256.984C266.135 257.946 275.92 257.201 285.088 257.181C299.533 258.027 314.222 257.558 328.698 257.543L401.78 257.469L601.167 257.448L605.104 261.093L706.456 362.516Q722.619 378.383 738.59 394.444C742.717 398.548 748.273 402.958 751.655 407.631C751.597 419.232 752.006 430.835 751.876 442.433L752.442 881.082C736.287 880.752 720.078 880.999 703.918 880.993L612.911 880.975L331.071 881.025C290.809 881.04 250.342 881.913 210.1 881.027L206.647 879.986C193.683 880.68 180.486 880.095 167.491 880.174C159.107 880.224 150.775 880.962 142.362 880.935C134.233 880.909 120.281 879.645 113.112 880.988C112.429 868.724 112.861 856.258 112.878 843.972L112.95 780.812L112.99 588.576L112.962 389.635L113.003 322.457C113.019 310.458 112.566 298.265 113.209 286.296Q113.33 284.378 113.682 282.489Q114.033 280.6 114.609 278.767Q115.185 276.934 115.977 275.183Q116.77 273.432 117.767 271.79C121.206 266.143 126.803 261.022 133.019 258.693C142.432 255.168 182.833 256.718 195.594 256.733C199.131 256.737 205.293 257.66 208.59 256.714C208.755 256.667 208.91 256.589 209.07 256.526Z"/>
	<path fill="#124574" d="M546.804 352.194C560.741 352.149 575.003 351.477 588.9 352.283C589.663 353.375 589.568 354.821 589.659 356.11C582.296 356.609 574.761 356.361 567.376 356.414C561.577 356.456 555.336 356.981 549.599 356.161C548.08 355.209 547.559 353.744 546.804 352.194Z"/>
	<path fill="#124574" d="M207.054 819.247C207.707 819.542 209.204 819.968 209.504 820.609C210.415 822.559 210.107 874.356 210.1 881.027L206.647 879.986L206.676 879.659C207.958 875.223 207.06 864.847 207.048 859.721Q206.916 839.483 207.054 819.247Z"/>
	<path fill="#124574" d="M656.868 607.455C670.917 607.45 685.019 607.175 699.061 607.464C698.896 608.949 698.657 610.3 698.26 611.741C695.357 613.124 664.777 612.725 660.068 612.14C658.342 611.926 658.407 609.281 657.402 608.07C657.228 607.861 657.046 607.66 656.868 607.455Z"/>
	<path fill="#124574" d="M655.942 545.363C655.906 543.763 655.705 542.313 656.556 540.884C658.22 539.797 693.989 539.997 698.188 540.504C699.253 541.75 699.005 543.508 698.989 545.117C690.005 545.17 681.011 545.025 672.026 544.998C666.728 544.983 661.201 544.701 655.942 545.363Z"/>
	<path fill="#124574" d="M655.695 769.568C656.199 767.954 656.49 766.311 657.829 765.175C664.684 764.256 672.302 764.894 679.244 764.906C686.496 764.918 694.378 764.3 701.553 765.212C702.078 766.696 702.265 768.037 702.421 769.601L655.695 769.568Z"/>
	<path fill="#124574" d="M592.414 298.445L596.991 299.804C597.174 307.186 598.549 347.559 596.593 350.544C595.194 350.919 593.878 351.127 592.438 351.275L592.414 298.445Z"/>
	<path fill="#124574" d="M703.345 548.257C703.924 548.462 704.508 548.666 705.074 548.904C705.861 549.234 707.055 549.872 707.318 550.73C708.213 553.656 708.394 598.15 708.014 604.099C707.955 605.027 707.806 605.602 707.367 606.418C706.172 606.926 704.964 607.279 703.72 607.637L703.177 607.222C703.192 587.614 702.607 567.842 703.345 548.257Z"/>
	<path fill="#124574" d="M702.606 480.291C704.217 473.539 703.115 454.234 703.074 446.161C703.057 442.989 702.751 439.597 703.321 436.472L703.731 437.213L703.738 436.436L703.3 436.398C704.923 437.562 706.253 438.849 707.722 440.183C707.921 458.611 707.327 477.222 708.074 495.62C706.393 495.199 703.752 494.896 702.436 493.774Q702.572 487.033 702.606 480.291Z"/>
	<path fill="#124574" d="M655.664 605.467C655.307 606.711 655.556 606.132 654.933 607.213L653.026 607.256C652.028 606.573 651.557 606.214 651.332 604.968C650.567 600.748 650.287 546.382 651.402 544.796C651.879 544.756 652.014 544.73 652.554 544.774C653.891 544.882 654.779 544.984 655.687 545.951L655.664 605.467Z"/>
	<path fill="#124574" d="M206.819 571.391C206.878 571.224 206.951 571.061 206.996 570.889C207.791 567.86 207.187 562.968 207.178 559.753L207.274 529.937C207.249 524.418 206.169 517.81 207.447 512.486C208.597 512.479 208.555 512.559 209.487 513.077C209.935 514.374 210.052 515.508 210.077 516.874C210.205 523.651 209.414 530.463 209.413 537.259C209.412 550.81 210.027 564.393 210.07 577.958C204.515 577.837 166.105 578.735 164.431 577.858C164.106 577.688 163.905 577.347 163.643 577.092L163.58 575.194C167.128 573.085 199.193 576.094 206.388 574.399L206.819 571.391Z"/>
	<path fill="#124574" d="M207.083 610.999L208.734 610.878C208.961 611.14 209.308 611.335 209.415 611.664C210.64 615.438 210.328 667.831 210.563 676.49C204.026 676.481 167.005 677.5 163.258 674.926L163.41 673.908C170.709 670.164 196.789 674.572 206.697 672.455C206.942 658.482 206.711 644.476 206.753 630.499C206.773 624.051 206.508 617.418 207.083 610.999Z"/>
	<path fill="#124574" d="M206.576 429.073C207.027 423.274 206.976 417.439 206.932 411.625C206.911 408.762 206.57 405.459 207.007 402.643C207.181 401.52 207.396 401.182 208.129 400.382C209.328 400.848 209.347 401.012 209.819 402.225C210.364 403.624 210.19 458.861 210.531 466.092C203.501 465.965 166.378 466.989 163.753 465.468C163.488 464.417 163.438 463.974 163.819 462.952C170.85 460.271 196.785 464.215 206.439 462.183Q206.378 445.628 206.576 429.073Z"/>
	<path fill="#124574" d="M305.905 293.911C307.482 294.485 308.285 294.575 309.35 295.905C310.228 302.513 309.609 309.793 309.594 316.489L309.581 356.429C298.656 355.472 287.328 355.817 276.356 355.913C271.341 355.957 265.047 356.746 260.179 355.677C259.268 354.443 259.348 353.323 259.355 351.793Q282.576 352.001 305.798 351.901C306.249 332.6 305.9 313.221 305.905 293.911Z"/>
	<path fill="#124574" d="M655.575 438.794C654.282 447.002 656.873 487.259 654.612 490.848L653.76 490.952C652.29 489.451 652.248 487.532 652.11 485.518C651.324 474.088 652.156 462.093 652.221 450.606C652.253 444.965 651.576 436.989 652.11 431.753C652.228 430.596 652.69 429.898 653.425 429.039C657.263 426.878 693.697 428.139 700.179 428.168L700.883 432.822C697.482 432.778 694.143 432.76 690.754 433.075C679.074 433.276 667.359 433.052 655.677 432.996C655.664 434.886 655.813 436.926 655.575 438.794Z"/>
	<path fill="#124574" d="M497.996 298.992C499.208 298.041 499.789 298.032 501.262 297.967L502.217 298.497C503.193 303.163 502.479 309.063 502.45 313.865C502.365 327.811 501.663 342.064 502.367 355.978L471.606 356.005C466.169 356.007 460.455 356.364 455.055 355.792C454.692 354.49 454.79 353.242 454.836 351.908L498.028 351.972L497.996 298.992Z"/>
	<path fill="#124574" d="M206.509 294.267C208.032 294.872 209.291 295.246 210.308 296.615C211.059 302.513 210.53 308.783 210.487 314.74C210.387 328.612 209.94 342.626 210.568 356.484Q195.889 356.306 181.209 356.455C175.734 356.477 170.112 356.792 164.671 356.244C163.665 355.115 163.784 353.326 163.653 351.881L206.476 351.968L206.509 294.267Z"/>
	<path fill="#FCFCFC" d="M655.677 432.996C667.359 433.052 679.074 433.276 690.754 433.075C694.679 433.404 698.589 433.447 702.527 433.484C702.534 449.036 702.036 464.76 702.606 480.291Q702.572 487.033 702.436 493.774C697.211 493.065 691.372 493.51 686.08 493.509L656.02 493.433C655.817 475.318 656.77 456.848 655.575 438.794C655.813 436.926 655.664 434.886 655.677 432.996Z"/>
	<path fill="#FCFCFC" d="M160.572 705.09C176.026 704.792 191.522 705.008 206.98 704.995L206.73 766.353L160.726 766.06C160.462 745.742 161.317 725.407 160.572 705.09Z"/>
	<path fill="#FCFCFC" d="M160.541 818.015L190.778 817.954C195.648 817.947 201.909 817.234 206.603 818.352L207.054 819.247Q206.916 839.484 207.048 859.721C207.06 864.847 207.958 875.223 206.676 879.659C191.586 880.398 176.11 879.654 160.98 879.62C160.681 859.162 161.801 838.417 160.541 818.015Z"/>
	<path fill="#FCFCFC" d="M160.835 609.365C168.553 609.37 202.22 608.173 206.646 609.804L207.083 610.999C206.508 617.418 206.773 624.051 206.753 630.499C206.711 644.476 206.942 658.482 206.697 672.455C201.764 671.686 196.036 672.172 191.022 672.169L160.787 672.097L160.835 609.365Z"/>
	<path fill="#FCFCFC" d="M702.421 769.601C703.613 775.385 702.784 782.657 702.772 788.638Q702.76 809.764 702.525 830.888C686.952 831.053 671.346 830.971 655.773 830.847C655.328 821.798 655.63 812.607 655.615 803.544C655.596 792.233 655.356 780.873 655.695 769.568L702.421 769.601Z"/>
	<path fill="#FCFCFC" d="M160.61 511.085Q183.585 510.954 206.559 511.273L206.552 551.587C206.55 558 205.879 565.089 206.819 571.391L206.388 574.399C201.274 573.53 195.39 574.06 190.164 574.065L160.633 574.061L160.61 511.085Z"/>
	<path fill="#FCFCFC" d="M160.468 289.049L206.461 289.028L206.509 294.267L206.476 351.968L163.653 351.881C162.519 351.834 161.733 351.754 160.686 351.305C159.476 345.593 160.374 337.812 160.384 331.894L160.468 289.049Z"/>
	<path fill="#FCFCFC" d="M160.379 398.529Q183.443 398.472 206.507 398.652Q206.388 413.863 206.576 429.073Q206.378 445.627 206.439 462.183C192.426 461.094 174.879 461.999 160.495 462.013C160.185 440.863 160.535 419.685 160.379 398.529Z"/>
	<path fill="#FCFCFC" d="M698.989 545.117C700.288 545.279 701.395 545.172 702.433 546.006C703.07 556.739 702.631 567.682 702.618 578.437C702.606 587.746 703.103 597.371 702.424 606.645C701.37 607.621 700.451 607.375 699.061 607.464C685.019 607.175 670.917 607.45 656.868 607.455L656.008 606.991L655.664 605.467L655.687 545.951L655.942 545.363C661.201 544.701 666.728 544.983 672.026 544.998C681.011 545.025 690.005 545.17 698.989 545.117Z"/>
	<path fill="#FCFCFC" d="M655.944 655.502C671.504 655.187 687.095 655.414 702.659 655.453C703.039 676.495 702.683 697.61 702.556 718.656C687.143 719.243 671.268 719.128 655.854 718.611C655.097 697.751 655.17 676.353 655.944 655.502Z"/>
	<path fill="#FCFCFC" d="M543.43 289.04L592.469 289.246L592.414 298.445L592.438 351.275C587.374 352.246 581.182 351.623 575.982 351.614L543.492 351.532L543.43 289.04Z"/>
	<path fill="#FCFCFC" d="M352.508 289.067L401.826 289.104C401.077 297.01 401.47 305.196 401.471 313.137L401.444 351.895L352.471 351.622L352.508 289.067Z"/>
	<path fill="#FCFCFC" d="M256.913 289.005L288.248 288.967C293.891 288.964 299.842 288.577 305.444 289.229C306.123 290.589 305.9 292.391 305.905 293.911C305.9 313.221 306.249 332.6 305.798 351.901Q282.576 352.001 259.355 351.793C258.169 351.633 257.976 351.791 257.059 350.946C256.507 343.57 256.834 336.02 256.84 328.615L256.913 289.005Z"/>
	<path fill="#FCFCFC" d="M448.022 289.158C464.662 288.718 481.396 289.045 498.047 288.973L497.996 298.992L498.028 351.972L454.836 351.908L448.188 351.891C447.499 331.071 448.049 310.001 448.022 289.158Z"/>
	<path fill="#124574" d="M605.104 261.093L706.456 362.516Q722.619 378.383 738.59 394.444C742.717 398.548 748.273 402.958 751.655 407.631C751.597 419.232 752.006 430.835 751.876 442.433L751.035 442.7C746.866 440.325 741.375 433.545 737.837 429.995L696.277 387.56C665.841 356.552 634.39 326.442 604.558 294.844C604.463 285.756 603.181 269.4 605.104 261.093Z"/>
	<path fill="#DB5C4B" d="M270.779 478.55C308.798 479.797 347.078 478.683 385.116 478.617L591.472 478.421C590.992 506.478 591.516 534.644 591.511 562.712L591.406 750.711L271.034 750.626C270.386 659.953 272.114 569.212 270.779 478.55Z"/>
	<path fill="#FCFCFC" d="M377.067 522.082C378.51 521.928 380.152 521.809 381.585 522.049C383.22 522.324 384.852 523.334 386.27 524.171C391.524 527.277 396.544 530.823 401.725 534.061L434.965 554.41L486.776 586.256C498.761 593.552 511.004 600.413 522.804 608.016C524.899 609.366 527.545 610.979 528.963 613.05C530.443 615.21 530.975 618.393 530.378 620.942C529.874 623.092 526.798 625.433 525.105 626.645C519.453 630.688 512.938 634.008 506.955 637.559Q488.755 648.289 470.699 659.261C462.627 663.727 454.806 668.818 446.86 673.519Q425.269 686.397 403.394 698.787C397.125 702.419 391.11 707.124 384.523 710.128C382.27 711.156 380.103 711.862 377.617 711.331Q377.026 711.203 376.452 711.014Q375.878 710.825 375.327 710.576Q374.776 710.327 374.255 710.021Q373.734 709.715 373.248 709.356Q372.762 708.996 372.317 708.588Q371.871 708.179 371.472 707.725Q371.072 707.271 370.723 706.778Q370.374 706.285 370.079 705.757C368.977 703.764 369.013 701.369 368.965 699.152C368.359 671.35 369.015 643.367 369.024 615.549C369.032 588.564 368.376 561.432 368.928 534.472C368.964 532.761 368.991 530.775 369.612 529.17C370.953 525.703 373.886 523.671 377.067 522.082Z"/>
</svg>
